<?xml version="1.0" encoding="UTF-8" standalone="no"?>
<!-- Generator: Adobe Illustrator 23.0.4, SVG Export Plug-In . SVG Version: 6.00 Build 0)  -->

<svg
   version="1.1"
   id="Layer_1"
   x="0px"
   y="0px"
   viewBox="0 0 359.99999 360"
   xml:space="preserve"
   sodipodi:docname="header.svg"
   width="360"
   height="360"
   inkscape:version="1.1 (c68e22c387, 2021-05-23)"
   xmlns:inkscape="http://www.inkscape.org/namespaces/inkscape"
   xmlns:sodipodi="http://sodipodi.sourceforge.net/DTD/sodipodi-0.dtd"
   xmlns="http://www.w3.org/2000/svg"
   xmlns:svg="http://www.w3.org/2000/svg"
   xmlns:rdf="http://www.w3.org/1999/02/22-rdf-syntax-ns#"
   xmlns:x="adobe:ns:meta/"
   xmlns:xmp="http://ns.adobe.com/xap/1.0/"
   xmlns:xmpMM="http://ns.adobe.com/xap/1.0/mm/"
   xmlns:stEvt="http://ns.adobe.com/xap/1.0/sType/ResourceEvent#"><defs
   id="defs33" /><sodipodi:namedview
   id="namedview31"
   pagecolor="#ffffff"
   bordercolor="#666666"
   borderopacity="1.0"
   inkscape:pageshadow="2"
   inkscape:pageopacity="0.0"
   inkscape:pagecheckerboard="0"
   showgrid="false"
   width="360px"
   inkscape:zoom="1.6328077"
   inkscape:cx="237.93371"
   inkscape:cy="145.45497"
   inkscape:window-width="1920"
   inkscape:window-height="1017"
   inkscape:window-x="1912"
   inkscape:window-y="-8"
   inkscape:window-maximized="1"
   inkscape:current-layer="Layer_1" />
<metadata
   id="metadata2"><?xpacket begin="﻿" id="W5M0MpCehiHzreSzNTczkc9d"?>
<x:xmpmeta
   x:xmptk="Adobe XMP Core 5.6-c148 79.163858, 2019/03/06-03:18:36        ">
   <rdf:RDF>
      <rdf:Description
   rdf:about="">
         <xmp:MetadataDate>2019-07-23T16:31:11+02:00</xmp:MetadataDate>
         <xmpMM:InstanceID>xmp.iid:3d1a0a10-afbd-4620-9966-1ca4f282e487</xmpMM:InstanceID>
         <xmpMM:DocumentID>xmp.did:3d1a0a10-afbd-4620-9966-1ca4f282e487</xmpMM:DocumentID>
         <xmpMM:OriginalDocumentID>xmp.did:3d1a0a10-afbd-4620-9966-1ca4f282e487</xmpMM:OriginalDocumentID>
         <xmpMM:History>
            <rdf:Seq>
               <rdf:li>
                  <rdf:Description>
                     <stEvt:action>saved</stEvt:action>
                     <stEvt:instanceID>xmp.iid:3d1a0a10-afbd-4620-9966-1ca4f282e487</stEvt:instanceID>
                     <stEvt:when>2019-07-23T16:31:11+02:00</stEvt:when>
                     <stEvt:softwareAgent>Adobe Bridge 2019 (Macintosh)</stEvt:softwareAgent>
                     <stEvt:changed>/metadata</stEvt:changed>
                  </rdf:Description>
               </rdf:li>
            </rdf:Seq>
         </xmpMM:History>
      </rdf:Description>
   </rdf:RDF>
</x:xmpmeta>
                                                                                                    
                                                                                                    
                                                                                                    
                                                                                                    
                                                                                                    
                                                                                                    
                                                                                                    
                                                                                                    
                                                                                                    
                                                                                                    
                                                                                                    
                                                                                                    
                                                                                                    
                                                                                                    
                                                                                                    
                                                                                                    
                                                                                                    
                                                                                                    
                                                                                                    
                                                                                                    
                           
<?xpacket end="w"?></metadata>
<style
   type="text/css"
   id="style4">
	.st0{fill:#0099DA;}
	.st1{opacity:0;fill:#FFFFFF;}
</style>










<g
   id="g46"
   transform="matrix(1.4608154,0,0,1.4608154,-106.1007,-83.096596)"
   style="fill:#ffffff"><rect
     x="142.3"
     y="95.900002"
     transform="matrix(0.7071,0.7071,-0.7071,0.7071,161.8489,-94.2261)"
     class="st0"
     width="104.7"
     height="104.7"
     id="rect6"
     style="fill:#ffffff" /><rect
     x="124.4"
     y="257.10001"
     class="st0"
     width="7.4000001"
     height="28.200001"
     id="rect8"
     style="fill:#ffffff" /><rect
     x="124.4"
     y="245.10001"
     class="st0"
     width="7.4000001"
     height="6.9000001"
     id="rect10"
     style="fill:#ffffff" /><path
     class="st0"
     d="m 108.2,256.4 c -4.1,0 -7.8,1.9 -9.9,5.6 -1,-3.6 -4.2,-5.6 -8,-5.6 -3.8,0 -7.6,2 -9.4,5.5 h -0.1 c 0,-1.4 0,-4.8 0,-4.8 H 74 v 28.2 h 7.4 V 271 c 0,-5.2 2.6,-8.8 6,-8.8 3,0 4.6,2.5 4.6,6 v 17.1 h 7.4 v -14 c 0,-5.7 2.4,-9.1 5.9,-9.1 3.1,0 4.7,2.5 4.7,7.4 v 15.7 h 7.4 v -16.5 c 0.1,-6.9 -2.2,-12.4 -9.2,-12.4 z"
     id="path12"
     style="fill:#ffffff" /><path
     class="st0"
     d="m 242,256.4 c -9.1,0 -15.1,5.7 -15.1,14.8 0,8.8 6.1,14.8 14.9,14.8 8.8,0 14.9,-5.9 14.9,-14.7 -0.1,-9 -6.1,-14.9 -14.7,-14.9 z m -0.3,24 c -4.2,0 -7,-3.6 -7,-9.1 0,-6 2.6,-9.4 7,-9.4 4.4,0 7.1,3.3 7.1,9.2 0,5.9 -2.7,9.3 -7.1,9.3 z"
     id="path14"
     style="fill:#ffffff" /><path
     class="st0"
     d="m 276.8,256.4 c -4.1,0 -7.3,2 -9.4,5.4 h -0.1 c 0,-1.5 0,-4.7 0,-4.7 h -6.9 v 28.2 h 7.2 v -12.8 c 0,-2.8 0.4,-5 1.2,-6.6 1.2,-2.2 3.3,-3.7 5.8,-3.7 4.8,0 5.1,4 5.1,9.4 v 13.6 h 7.2 v -16.5 c 0.1,-7.4 -2.6,-12.3 -10.1,-12.3 z"
     id="path16"
     style="fill:#ffffff" /><path
     class="st0"
     d="m 317.7,271.5 c 0,-10.2 -4.2,-15.1 -12.4,-15.1 -8.5,0 -14.2,6.1 -14.2,14.6 0,9.5 6.1,14.9 15.4,14.9 3.6,0 6.8,-0.7 9.2,-1.9 l -0.1,-6 c -2.4,1.5 -5.1,2.3 -8.2,2.3 -5.1,0 -8.6,-2.8 -8.7,-7.1 h 18.9 c 0.1,-0.3 0.1,-1.3 0.1,-1.7 z m -19.1,-3.3 c 0.4,-4.4 3.2,-6.6 6.5,-6.6 3.6,0 5.9,2 5.9,6.6 z"
     id="path18"
     style="fill:#ffffff" /><path
     class="st0"
     d="m 179.3,271.5 c 0,-10.2 -4.2,-15.1 -12.4,-15.1 -8.5,0 -14.2,6.1 -14.2,14.6 0,9.5 6.1,14.9 15.4,14.9 3.6,0 6.8,-0.7 9.2,-1.9 l -0.1,-6 c -2.4,1.5 -5.1,2.3 -8.2,2.3 -5.1,0 -8.6,-2.8 -8.7,-7.1 h 18.9 c 0,-0.3 0.1,-1.3 0.1,-1.7 z m -19.2,-3.3 c 0.4,-4.4 3.2,-6.6 6.5,-6.6 3.6,0 5.9,2 5.9,6.6 z"
     id="path20"
     style="fill:#ffffff" /><path
     class="st0"
     d="m 195,268.5 c -4,-1.3 -5.2,-2 -5.2,-3.9 0,-1.9 1.8,-3 4.3,-3 2.2,0 4.2,0.5 6.6,1.5 v -5.7 c -2,-0.7 -4.3,-1 -6.9,-1 -6.7,0 -11.2,3.3 -11.2,8.7 0,4.2 2.1,6.3 7.5,8.2 4.5,1.6 5.5,2.4 5.5,4.3 0,2 -2.1,3 -4.6,3 -2.4,0 -5.1,-0.6 -7.7,-1.8 v 5.9 c 2.6,0.9 5.3,1.3 8.1,1.3 6.9,0 11.6,-3.2 11.6,-9 0,-4.8 -3,-6.9 -8,-8.5 z"
     id="path22"
     style="fill:#ffffff" /><path
     class="st0"
     d="m 224.3,279.3 c -0.8,0.3 -1.8,0.4 -2.7,0.4 -3.6,0 -4.4,-1.9 -4.4,-6.2 v -11 h 6.7 v -5.4 h -6.7 v -13.7 l -6.9,6.9 v 6.8 h -5.5 v 5.4 h 5.4 V 275 c 0,7.5 2.7,10.6 9.2,10.6 1.9,0 3.7,-0.2 5,-0.7 z"
     id="path24"
     style="fill:#ffffff" /><polygon
     class="st0"
     points="147.6,285.3 147.6,243.4 140.2,250.7 140.2,285.3 "
     id="polygon26"
     style="fill:#ffffff" /></g>
<rect
   x="0"
   y="0"
   class="st1"
   width="391.70001"
   height="360"
   id="rect28" />
</svg>
