<?xml version="1.0" encoding="UTF-8" standalone="no"?>
<!-- Created with Inkscape (http://www.inkscape.org/) -->

<svg
   width="353.28879mm"
   height="62.910843mm"
   viewBox="0 0 353.28879 62.910843"
   version="1.1"
   id="svg1"
   xml:space="preserve"
   xmlns:inkscape="http://www.inkscape.org/namespaces/inkscape"
   xmlns:sodipodi="http://sodipodi.sourceforge.net/DTD/sodipodi-0.dtd"
   xmlns="http://www.w3.org/2000/svg"
   xmlns:svg="http://www.w3.org/2000/svg"><sodipodi:namedview
     id="namedview1"
     pagecolor="#ffffff"
     bordercolor="#000000"
     borderopacity="0.25"
     inkscape:showpageshadow="2"
     inkscape:pageopacity="0.0"
     inkscape:pagecheckerboard="0"
     inkscape:deskcolor="#d1d1d1"
     inkscape:document-units="mm" /><defs
     id="defs1" /><g
     inkscape:label="Layer 1"
     inkscape:groupmode="layer"
     id="layer1"
     transform="translate(58.05731,-166.40226)"><path
       style="fill:#ffffff;fill-opacity:1"
       d="m -27.226721,229.14447 c -0.195643,-0.0966 -7.187477,-7.01422 -15.53741,-15.37255 -16.184221,-16.20051 -15.458722,-15.42141 -15.20633,-16.32977 0.08538,-0.30727 3.526382,-3.81037 15.369545,-15.64689 10.477932,-10.47206 15.361113,-15.27556 15.583692,-15.32938 0.855946,-0.20699 0.201697,-0.82056 16.432792,15.41091 l 15.345833,15.34618 v 0.64642 0.64642 l -15.22824,15.23999 c -8.937678,8.94458 -15.384552,15.30807 -15.60664,15.4048 -0.476476,0.20752 -0.706663,0.2043 -1.153242,-0.0161 z M 117.06232,214.86538 c -7.51244,-0.67578 -12.34262,-4.88963 -13.82825,-12.06378 -0.31677,-1.52967 -0.43888,-5.51491 -0.22464,-7.33148 0.51265,-4.34692 2.27826,-8.19286 4.93857,-10.7574 2.60289,-2.5092 5.70824,-3.76402 9.70229,-3.92054 6.18951,-0.24255 10.70241,2.14624 13.13186,6.95104 0.66344,1.31212 1.34625,3.43733 1.63146,5.07784 0.32037,1.84277 0.46347,5.80508 0.21705,6.0096 -0.12054,0.10004 -3.19638,0.15937 -11.54141,0.22264 -9.66308,0.0733 -11.39817,0.11167 -11.51706,0.25492 -0.10767,0.12974 -0.1087,0.44451 -0.004,1.36399 0.19547,1.724 0.53028,2.91041 1.21107,4.29137 1.05947,2.14913 2.80166,3.57336 5.23184,4.27701 0.82653,0.23933 1.18456,0.27021 3.10954,0.26825 2.07859,-0.002 2.21736,-0.0169 3.11621,-0.33204 2.20691,-0.7737 3.23485,-1.70553 4.30137,-3.89917 0.39304,-0.8084 0.78538,-1.46981 0.87187,-1.46981 0.48347,0 5.42979,1.22543 5.54783,1.37445 0.1675,0.21146 -0.025,0.9409 -0.60309,2.28498 -1.62914,3.78797 -5.13848,6.39165 -9.64736,7.15766 -1.5367,0.26106 -4.1691,0.3732 -5.6447,0.24047 z m 9.20366,-20.27776 c 0.11733,-0.11092 0.12172,-0.3397 0.0207,-1.07539 -0.2807,-2.04365 -1.09089,-3.75601 -2.39435,-5.06054 -0.92138,-0.92215 -2.02789,-1.54468 -3.36099,-1.89093 -1.01712,-0.26417 -3.07276,-0.26121 -4.17454,0.006 -2.38801,0.57919 -4.32709,2.22838 -5.52559,4.69952 -0.45295,0.93392 -1.11721,2.99533 -1.1181,3.46981 -4e-4,0.2194 16.3186,0.073 16.5529,-0.14848 z m 23.54588,20.26706 c -2.53448,-0.18556 -4.72487,-0.71455 -6.56772,-1.58613 -3.10048,-1.46638 -4.94554,-3.71737 -5.61351,-6.84856 -0.18,-0.84373 -0.18535,-0.99606 -0.0399,-1.13595 0.2138,-0.20569 4.87045,-1.74033 5.1285,-1.69015 0.13424,0.0261 0.24005,0.26822 0.34745,0.79497 0.23124,1.13414 0.69141,1.96154 1.57629,2.83421 1.74076,1.71675 4.88117,2.60941 8.52032,2.42188 4.08431,-0.21046 6.34417,-1.72483 6.34165,-4.24963 -0.002,-2.36061 -1.53898,-3.34061 -7.19854,-4.59097 -7.39346,-1.63344 -10.11286,-2.69872 -12.09969,-4.73985 -1.60372,-1.64757 -2.28127,-3.6396 -2.10747,-6.19606 0.14372,-2.11401 0.84654,-3.81698 2.16139,-5.23714 2.3684,-2.55809 6.08449,-3.86723 10.98717,-3.87067 7.25257,-0.005 12.34748,3.18241 13.55204,8.47845 0.15823,0.69568 0.16552,0.87534 0.0403,0.99393 -0.2004,0.18986 -5.07922,1.61122 -5.35189,1.55919 -0.15217,-0.029 -0.26336,-0.25924 -0.40288,-0.83409 -0.30082,-1.23942 -0.72257,-1.97679 -1.60617,-2.80821 -0.85622,-0.80563 -1.89911,-1.38118 -3.03245,-1.67354 -2.4979,-0.64437 -5.6751,-0.48055 -7.53186,0.38833 -1.57159,0.73544 -2.41544,1.92874 -2.41544,3.41571 0,1.81758 1.26341,3.00843 4.04481,3.81253 0.91417,0.26428 1.70535,0.4502 6.55928,1.54135 4.76489,1.07113 7.20519,2.1535 8.8425,3.92198 0.81244,0.87753 1.28489,1.69472 1.64219,2.84044 0.23815,0.76368 0.27443,1.11848 0.27052,2.64584 -0.003,1.32634 -0.057,1.95299 -0.21611,2.52623 -1.18731,4.27782 -5.23437,6.80774 -11.65623,7.28662 -1.80225,0.13439 -2.33036,0.1343 -4.17454,-7.1e-4 z m 58.50138,0.0111 c -7.25022,-0.6484 -12.35515,-5.19336 -13.80721,-12.29267 -0.76176,-3.72436 -0.52563,-8.52405 0.58271,-11.84422 1.17217,-3.51138 3.67463,-6.45663 6.90238,-8.1237 2.19926,-1.13587 4.4533,-1.69739 7.2638,-1.80954 8.53954,-0.34077 14.7614,4.32521 16.40442,12.3022 0.74817,3.63242 0.52085,8.55768 -0.54314,11.76832 -1.76507,5.32614 -6.09495,8.91002 -11.86174,9.81806 -1.38679,0.21837 -3.61435,0.30021 -4.94122,0.18155 z m 4.41066,-5.59161 c 1.3794,-0.33313 2.41961,-0.93535 3.54012,-2.04952 0.86919,-0.86427 1.09758,-1.18029 1.61954,-2.24089 1.04142,-2.11609 1.54275,-4.94014 1.37582,-7.75011 -0.34548,-5.81581 -2.76478,-9.50994 -6.94705,-10.60778 -1.24882,-0.32782 -3.51196,-0.35432 -4.70371,-0.0551 -3.27096,0.82129 -5.35388,3.15194 -6.24842,6.99158 -0.54677,2.34689 -0.51399,6.08429 0.0745,8.49228 1.02514,4.19472 3.62279,6.80727 7.34986,7.39199 0.93716,0.14703 2.98827,0.0572 3.93935,-0.17246 z m 66.52236,5.57697 c -8.96086,-0.73947 -14.18674,-6.78833 -14.19269,-16.4278 -0.005,-7.81261 3.42119,-13.96399 9.15883,-16.44461 2.99006,-1.29273 7.03626,-1.57555 10.59009,-0.74023 5.49783,1.29225 9.05857,5.76833 9.93727,12.49179 0.22609,1.72998 0.24731,4.93754 0.0338,5.11471 -0.0984,0.0817 -3.958,0.15114 -11.59342,0.20866 -9.42022,0.071 -11.45663,0.11422 -11.50659,0.2444 -0.10552,0.27499 0.19842,2.44343 0.50273,3.58669 0.72724,2.73215 2.22536,4.66182 4.45916,5.74367 1.58271,0.76651 2.1712,0.87748 4.64491,0.87586 2.04778,-0.001 2.23068,-0.02 3.11621,-0.31768 2.431,-0.81727 3.70435,-2.14072 4.86398,-5.05538 0.0708,-0.17786 0.21484,-0.32338 0.32017,-0.32338 0.436,0 5.41203,1.21074 5.56083,1.35304 0.13685,0.13087 0.12408,0.27791 -0.0833,0.95887 -0.33296,1.09329 -1.16821,2.76729 -1.81921,3.64603 -2.25367,3.0421 -5.62116,4.71513 -10.25358,5.09417 -1.57927,0.12922 -2.08092,0.12804 -3.73921,-0.009 z m 6.81595,-20.09793 h 2.50891 l -0.002,-0.44098 c -0.003,-0.96405 -0.45691,-2.66856 -1.00404,-3.7735 -1.3613,-2.74919 -3.73931,-4.18113 -6.93192,-4.17413 -1.55353,0.003 -2.43967,0.2074 -3.82176,0.87978 -0.81047,0.3943 -1.19238,0.68036 -2.01909,1.5124 -0.89577,0.90156 -1.09869,1.18864 -1.67147,2.36475 -0.56597,1.16213 -0.88039,2.07546 -1.18603,3.44519 l -0.0765,0.34269 5.84725,-0.0781 c 3.21599,-0.043 6.97626,-0.0781 8.35616,-0.0781 z m -103.69342,19.98908 c -3.85678,-0.35859 -6.29798,-2.22507 -7.3803,-5.64279 -0.62357,-1.96912 -0.62908,-2.06884 -0.68353,-12.37411 l -0.0508,-9.61068 -2.25519,-0.0319 -2.25518,-0.0319 v -2.70463 -2.70463 l 2.20486,-0.032 2.20486,-0.032 v -4.3753 -4.37531 l 3.16013,-3.16012 c 2.89907,-2.89908 3.18078,-3.14907 3.41018,-3.0263 l 0.25006,0.13383 v 7.40276 7.40276 l 4.38032,0.0308 4.38033,0.0308 0.0315,2.79141 0.0315,2.79141 -4.44124,0.0308 -4.44125,0.0308 -0.0335,8.34907 c -0.021,5.22767 0.0115,8.69342 0.087,9.27012 0.28442,2.17332 1.26507,3.16785 3.46012,3.50911 1.06472,0.16553 2.78857,-0.009 3.81709,-0.38665 0.36611,-0.1344 0.85952,-0.27085 1.09646,-0.30323 0.36244,-0.0495 0.46077,-0.0131 0.61962,0.22929 0.16198,0.24722 0.18431,0.67041 0.15716,2.97908 l -0.0316,2.69093 -0.30031,0.14386 c -0.44378,0.21258 -2.50948,0.70791 -3.52145,0.84441 -1.3791,0.18601 -2.78975,0.23315 -3.89678,0.13022 z M 21.008778,214.43035 c -0.04312,-0.0431 -0.0784,-7.30858 -0.0784,-16.14547 0,-12.33981 0.03273,-16.0998 0.141111,-16.20817 0.10124,-0.10124 0.875412,-0.14111 2.739908,-0.14111 1.864496,0 2.638667,0.0399 2.739907,0.14111 0.105312,0.10531 0.141111,1.40492 0.141111,5.12272 v 4.98162 l 0.37181,-0.0368 c 0.367542,-0.0364 0.375521,-0.051 0.695223,-1.27157 1.342356,-5.1248 3.858056,-8.34836 7.288798,-9.33969 1.643339,-0.47485 4.142228,-0.43206 5.817677,0.0996 3.270827,1.03794 5.490668,4.40288 5.959883,9.03429 l 0.139983,1.38172 h 0.450337 c 0.25751,0 0.469898,-0.0629 0.496021,-0.14699 0.02513,-0.0808 0.185234,-0.6497 0.355796,-1.26412 1.450588,-5.2255 4.195369,-8.31535 8.198159,-9.22884 1.091238,-0.24903 3.381769,-0.26117 4.506773,-0.0239 4.153479,0.87608 6.77609,4.28866 7.743426,10.07585 0.380809,2.27824 0.43721,4.18948 0.402539,13.64074 l -0.0343,9.34861 h -3.351389 -3.351389 l -0.06701,-9.81898 c -0.07081,-10.37554 -0.07887,-10.53315 -0.652452,-12.75199 -0.417879,-1.61653 -1.362939,-3.15774 -2.354729,-3.84011 -1.539978,-1.05953 -4.116337,-1.0918 -5.804048,-0.0727 -2.310031,1.39489 -4.087241,4.55742 -4.845012,8.62166 -0.248929,1.3351 -0.263779,1.77604 -0.324366,9.63064 l -0.06349,8.23148 H 44.978062 41.68547 l -0.06577,-9.81898 c -0.07038,-10.50787 -0.07298,-10.55551 -0.698627,-12.79588 -0.564844,-2.02266 -1.705548,-3.57698 -3.084108,-4.2024 -1.029273,-0.46696 -2.646546,-0.545 -3.832064,-0.18491 -2.568983,0.78031 -4.57777,3.47875 -5.604297,7.52838 -0.625664,2.46823 -0.648417,2.86501 -0.649164,11.32089 -3.82e-4,4.31183 -0.03281,7.92339 -0.07207,8.02569 -0.06271,0.16343 -0.467198,0.18601 -3.33179,0.18601 -1.793227,0 -3.295691,-0.0353 -3.338808,-0.0784 z m 55.858305,0.002 c -0.04412,-0.0441 -0.08022,-6.14129 -0.08022,-13.54926 v -13.46905 l 3.086806,-3.09578 c 2.256022,-2.26258 3.150103,-3.08682 3.32199,-3.06251 0.233916,0.0331 0.235186,0.12275 0.235186,16.61382 v 16.58055 l -3.241774,0.0312 c -1.782975,0.0172 -3.277871,-0.005 -3.32199,-0.049 z m 14.228671,-3e-5 c -0.0441,-0.0441 -0.0802,-9.34302 -0.0802,-20.66425 v -20.58406 l 3.17351,-3.17944 c 2.74036,-2.74548 3.2018,-3.16164 3.38079,-3.04903 0.19686,0.12385 0.20728,1.32089 0.20728,23.81249 v 23.68209 l -3.3006,0.0312 c -1.81533,0.0171 -3.33668,-0.005 -3.38079,-0.049 z m 139.698206,-0.002 c -0.0431,-0.0431 -0.0784,-7.30858 -0.0784,-16.14547 0,-12.33981 0.0327,-16.0998 0.14111,-16.20817 0.10143,-0.10143 0.88847,-0.14111 2.7987,-0.14111 1.91023,0 2.69728,0.0397 2.7987,0.14111 0.10531,0.1053 0.14112,1.40327 0.14112,5.11527 v 4.97417 h 0.33016 c 0.31864,0 0.34182,-0.0421 0.66398,-1.20532 1.48595,-5.36549 3.82398,-8.2075 7.6686,-9.32162 1.73289,-0.50218 4.51966,-0.58513 6.27152,-0.18669 3.84011,0.87339 6.42719,3.67156 7.58044,8.19895 0.70234,2.75723 0.70983,2.90852 0.70983,14.33273 v 10.46574 l -3.37187,0.0312 -3.37188,0.0312 -0.0486,-9.73258 c -0.0426,-8.51959 -0.0739,-9.8851 -0.25186,-10.9564 -0.40436,-2.43482 -1.07843,-4.04424 -2.14976,-5.13282 -1.09477,-1.11241 -2.31813,-1.57717 -4.15747,-1.57946 -2.14312,-0.003 -3.51763,0.56971 -5.05898,2.10666 -1.56889,1.5644 -2.54386,3.34831 -3.22155,5.89447 -0.6207,2.33208 -0.65037,2.84439 -0.65112,11.24365 -3.8e-4,4.27949 -0.0328,7.86459 -0.0721,7.96689 -0.0627,0.16343 -0.4672,0.18601 -3.33179,0.18601 -1.79323,0 -3.29569,-0.0353 -3.33881,-0.0784 z M 77.410477,175.32463 c -1.377801,-1.37238 -2.505093,-2.57786 -2.505093,-2.67885 0,-0.19418 4.930309,-5.17407 5.122554,-5.17407 0.188816,0 5.108001,4.98726 5.108001,5.17869 0,0.18641 -4.930814,5.16945 -5.115278,5.16945 -0.0578,0 -1.232382,-1.12285 -2.610184,-2.49522 z"
       id="path1"
       inkscape:export-filename="logo.svg"
       inkscape:export-xdpi="96"
       inkscape:export-ydpi="96" /></g></svg>
