<?xml version="1.0" encoding="UTF-8" standalone="no"?>
<!-- Generator: Adobe Illustrator 21.0.0, SVG Export Plug-In . SVG Version: 6.00 Build 0)  -->

<svg
   version="1.1"
   id="Layer_1"
   x="0px"
   y="0px"
   width="449.25635"
   height="96.28392"
   viewBox="0 0 449.25635 96.28392"
   enable-background="new 0 0 128 128"
   xml:space="preserve"
   sodipodi:docname="powershell_128.svg"
   xmlns:inkscape="http://www.inkscape.org/namespaces/inkscape"
   xmlns:sodipodi="http://sodipodi.sourceforge.net/DTD/sodipodi-0.dtd"
   xmlns="http://www.w3.org/2000/svg"
   xmlns:svg="http://www.w3.org/2000/svg"><defs
   id="defs8" /><sodipodi:namedview
   id="namedview8"
   pagecolor="#081927"
   bordercolor="#000000"
   borderopacity="0.25"
   inkscape:showpageshadow="2"
   inkscape:pageopacity="0.0"
   inkscape:pagecheckerboard="0"
   inkscape:deskcolor="#d1d1d1"
   showguides="true" />
<linearGradient
   id="SVGID_1_"
   gradientUnits="userSpaceOnUse"
   x1="95.123497"
   y1="91.804901"
   x2="26.855"
   y2="30.8249">
	<stop
   offset="0"
   style="stop-color:#5391FE"
   id="stop1" />
	<stop
   offset="1"
   style="stop-color:#3E6DBF"
   id="stop2" />
</linearGradient>

<linearGradient
   id="SVGID_2_"
   gradientUnits="userSpaceOnUse"
   x1="26.1775"
   y1="30.014601"
   x2="93.748497"
   y2="90.738098">
	<stop
   offset="0"
   style="stop-color:#5391FE"
   id="stop3" />
	<stop
   offset="1"
   style="stop-color:#3E6DBF"
   id="stop4" />
</linearGradient>





<g
   id="g18"
   transform="translate(-24.999998,-25)"><path
     style="fill:#0099da;fill-opacity:1;stroke-width:1.27164"
     d="M 64.20544,104.78556 C 63.956652,104.66272 55.065547,95.865995 44.44743,85.237197 23.866912,64.635964 24.78949,65.626701 25.110436,64.471594 25.219011,64.080849 29.594732,59.626168 44.654985,44.574364 57.979149,31.257663 64.188804,25.14934 64.471842,25.080898 65.5603,24.817685 64.728333,24.037439 85.36845,44.678044 l 19.51441,19.514829 v 0.822017 0.822011 L 85.517993,85.216696 c -11.365518,11.3743 -19.563627,19.466364 -19.846044,19.589374 -0.605905,0.2639 -0.898622,0.2598 -1.466509,-0.0205 z M 247.6893,86.627684 c -9.55313,-0.859348 -15.69539,-6.217851 -17.58457,-15.340796 -0.40282,-1.945193 -0.55811,-7.012988 -0.28566,-9.323012 0.6519,-5.527721 2.89712,-10.418374 6.28009,-13.679548 3.30994,-3.190799 7.25882,-4.786486 12.33783,-4.985522 7.87082,-0.308434 13.60961,2.729249 16.699,8.839232 0.84366,1.66854 1.71195,4.371046 2.07463,6.457185 0.4074,2.343342 0.58938,7.381974 0.27601,7.642057 -0.15329,0.127214 -4.06465,0.202659 -14.67653,0.283115 -12.28797,0.09321 -14.49437,0.142003 -14.64557,0.324163 -0.13691,0.164986 -0.13822,0.565261 -0.005,1.734507 0.24856,2.192315 0.67432,3.701003 1.54004,5.457087 1.34727,2.73292 3.56271,4.544027 6.65302,5.438818 1.05106,0.304343 1.50634,0.343612 3.95422,0.341122 2.64323,-0.0026 2.81969,-0.02153 3.9627,-0.422241 2.8064,-0.98387 4.11357,-2.168819 5.46979,-4.958343 0.49981,-1.027997 0.99873,-1.869075 1.10872,-1.869075 0.61481,0 6.90474,1.558314 7.05485,1.747812 0.21299,0.268906 -0.0318,1.196489 -0.76693,2.905672 -2.07167,4.816938 -6.53428,8.127885 -12.26797,9.101971 -1.95413,0.331982 -5.30159,0.47458 -7.17803,0.305796 z m 11.70374,-25.786031 c 0.14921,-0.141049 0.15479,-0.431978 0.0263,-1.367509 -0.35694,-2.598789 -1.38722,-4.776296 -3.04474,-6.435189 -1.17167,-1.172643 -2.57875,-1.964279 -4.27398,-2.404582 -1.29341,-0.335929 -3.90745,-0.332169 -5.30852,0.0076 -3.03669,0.736516 -5.5025,2.833696 -7.02656,5.976097 -0.57599,1.187614 -1.42069,3.808989 -1.42182,4.412351 -6.5e-4,0.279001 20.75139,0.09283 21.04934,-0.18881 z m 29.94191,25.772429 c -3.22295,-0.23597 -6.00833,-0.908652 -8.35178,-2.016995 -3.9427,-1.864704 -6.28896,-4.727158 -7.13837,-8.708906 -0.22889,-1.072925 -0.2357,-1.26663 -0.0508,-1.444517 0.27187,-0.261567 6.19345,-2.213082 6.52161,-2.149267 0.1707,0.03319 0.30525,0.341077 0.44183,1.010913 0.29405,1.442223 0.87922,2.494381 2.00447,3.604099 2.21363,2.183089 6.20709,3.318233 10.83479,3.079766 5.19377,-0.267635 8.0675,-2.193365 8.0643,-5.404008 -0.003,-3.001852 -1.95703,-4.248054 -9.15396,-5.838063 -9.40182,-2.077152 -12.85992,-3.431807 -15.38646,-6.027392 -2.03936,-2.095111 -2.90095,-4.628262 -2.67993,-7.879161 0.18275,-2.688256 1.07648,-4.853828 2.74849,-6.65976 3.01176,-3.252974 7.73729,-4.917727 13.97174,-4.922104 9.22267,-0.0065 15.70157,4.046885 17.23333,10.781546 0.20121,0.884651 0.21049,1.113114 0.0512,1.263922 -0.25483,0.241436 -6.45895,2.048892 -6.80568,1.98273 -0.19351,-0.03688 -0.3349,-0.329659 -0.51233,-1.060664 -0.38253,-1.576095 -0.91884,-2.513767 -2.04246,-3.571034 -1.08881,-1.024469 -2.41499,-1.756362 -3.8562,-2.128144 -3.17642,-0.819403 -7.21668,-0.611085 -9.57781,0.493815 -1.9985,0.935221 -3.07157,2.452669 -3.07157,4.343559 0,2.311307 1.6066,3.825644 5.14354,4.848167 1.1625,0.336072 2.1686,0.57249 8.34105,1.960046 6.05923,1.362091 9.16242,2.738476 11.24448,4.98735 1.03314,1.115902 1.63392,2.155075 2.08827,3.612023 0.30286,0.971124 0.34899,1.422299 0.34402,3.364556 -0.004,1.686628 -0.0725,2.483503 -0.27482,3.212459 -1.50984,5.439848 -6.65624,8.657001 -14.82254,9.265965 -2.29181,0.170892 -2.96337,0.170782 -5.30851,-0.0013 z m 74.39273,0.01406 c -9.21965,-0.824532 -15.7113,-6.604089 -17.5578,-15.631867 -0.96867,-4.736047 -0.66841,-10.839526 0.74101,-15.061588 1.49057,-4.465216 4.67281,-8.21052 8.77734,-10.330435 2.79668,-1.444415 5.663,-2.158467 9.23694,-2.301079 10.85925,-0.433339 18.77122,5.50011 20.86054,15.643978 0.9514,4.619134 0.66236,10.882296 -0.69068,14.965079 -2.24451,6.772938 -7.75057,11.330347 -15.08387,12.485043 -1.7635,0.277691 -4.59615,0.38176 -6.28348,0.230869 z m 5.60879,-7.110521 c 1.7541,-0.423621 3.07687,-1.189429 4.50176,-2.60625 1.10532,-1.099045 1.39575,-1.500909 2.05948,-2.849612 1.32431,-2.690909 1.96183,-6.282079 1.74957,-9.855357 -0.43935,-7.395622 -3.51584,-12.09323 -8.83418,-13.489285 -1.58803,-0.416872 -4.46593,-0.450566 -5.98142,-0.07007 -4.15949,1.044392 -6.80821,4.008142 -7.94576,8.890781 -0.69528,2.984398 -0.6536,7.737035 0.0947,10.799129 1.30362,5.334178 4.60689,8.656405 9.34639,9.399961 1.19173,0.18697 3.80002,0.07274 5.00945,-0.219308 z M 453.929,86.609529 C 442.534,85.669186 435.8886,77.97721 435.88103,65.71926 c -0.006,-9.934834 4.35051,-17.757177 11.64675,-20.911637 3.80223,-1.643891 8.94758,-2.003536 13.46679,-0.941309 6.99128,1.643276 11.51923,7.335244 12.63661,15.88507 0.28754,2.199914 0.31451,6.27878 0.0428,6.504079 -0.12512,0.103895 -5.03319,0.192196 -14.74268,0.265339 -11.97909,0.09029 -14.56869,0.145245 -14.63223,0.310788 -0.1342,0.349686 0.25233,3.107165 0.63931,4.560986 0.92477,3.474311 2.82988,5.92816 5.67044,7.303884 2.01266,0.974723 2.76095,1.115838 5.90662,1.113776 2.60407,-0.0013 2.83668,-0.02542 3.96269,-0.403971 3.09141,-1.039277 4.71066,-2.722229 6.18527,-6.428634 0.0901,-0.226168 0.2732,-0.411219 0.40714,-0.411219 0.55445,0 6.88217,1.539628 7.07142,1.720583 0.174,0.166418 0.15779,0.353401 -0.10594,1.219341 -0.42343,1.390266 -1.48557,3.518993 -2.31343,4.636439 -2.86585,3.868459 -7.14809,5.995947 -13.03882,6.47795 -2.00832,0.164325 -2.64621,0.162827 -4.75494,-0.0114 z m 8.66745,-25.557353 h 3.19048 l -0.006,-0.560769 c -0.006,-1.225929 -0.58104,-3.393451 -1.27682,-4.798539 -1.73103,-3.495977 -4.75507,-5.316893 -8.81486,-5.307992 -1.97552,0.0039 -3.10237,0.263739 -4.85991,1.118762 -1.03064,0.501407 -1.5163,0.865176 -2.56756,1.923234 -1.13911,1.146457 -1.39713,1.511516 -2.12553,3.007109 -0.71971,1.477815 -1.11953,2.639237 -1.5082,4.381044 l -0.0972,0.435777 7.43557,-0.09931 c 4.08956,-0.05465 8.87126,-0.09932 10.62602,-0.09932 z M 330.73567,86.47112 c -4.90444,-0.456005 -8.00877,-2.829494 -9.38509,-7.175607 -0.79295,-2.504015 -0.79996,-2.630821 -0.8692,-15.735423 l -0.0646,-12.221338 -2.86779,-0.04059 -2.86778,-0.04059 v -3.439301 -3.439314 l 2.80378,-0.04071 2.8038,-0.04071 v -5.563814 -5.563821 l 4.01855,-4.01854 c 3.68657,-3.686591 4.04481,-4.004484 4.33652,-3.848368 l 0.31799,0.170185 v 9.413654 9.413653 l 5.57019,0.03916 5.57021,0.03916 0.0401,3.549672 0.0401,3.549672 -5.64766,0.03916 -5.64768,0.03916 -0.0426,10.617016 c -0.0267,6.647721 0.0146,11.054904 0.11064,11.788264 0.36168,2.763682 1.6087,4.028369 4.40002,4.462331 1.35395,0.210491 3.54606,-0.01147 4.85398,-0.491682 0.46555,-0.170912 1.09299,-0.344424 1.39429,-0.385605 0.4609,-0.06295 0.58593,-0.01666 0.78794,0.291577 0.20598,0.314379 0.23438,0.85252 0.19986,3.788321 l -0.0403,3.421893 -0.38189,0.182937 c -0.56432,0.270333 -3.19115,0.900212 -4.47801,1.073794 -1.75372,0.236534 -3.54756,0.296479 -4.95531,0.165589 z M 125.54368,86.074442 c -0.0549,-0.05478 -0.0997,-9.293894 -0.0997,-20.531246 0,-15.691803 0.0416,-20.473162 0.17944,-20.61097 0.12875,-0.128738 1.11321,-0.179443 3.48418,-0.179443 2.37098,0 3.35544,0.05077 3.48418,0.179443 0.13393,0.133917 0.17944,1.786554 0.17944,6.514264 v 6.334827 l 0.47281,-0.04681 c 0.46738,-0.04629 0.47753,-0.06486 0.88407,-1.616979 1.707,-6.516903 4.90606,-10.61612 9.26874,-11.876735 2.08974,-0.603836 5.26743,-0.549422 7.39801,0.126657 4.1593,1.31989 6.98214,5.598882 7.57882,11.488375 l 0.17801,1.75705 h 0.57267 c 0.32746,0 0.59753,-0.07999 0.63075,-0.186919 0.032,-0.102747 0.23556,-0.826185 0.45244,-1.607507 1.84463,-6.64496 5.33501,-10.574135 10.42512,-11.73577 1.38767,-0.316679 4.3004,-0.332116 5.731,-0.0304 5.28174,1.11406 8.61676,5.453638 9.84685,12.812862 0.48425,2.897102 0.55598,5.327513 0.51189,17.346122 l -0.0437,11.888079 h -4.26177 -4.26176 l -0.0853,-12.486225 c -0.09,-13.19396 -0.10033,-13.394383 -0.82969,-16.215947 -0.53139,-2.055649 -1.73317,-4.015514 -2.99437,-4.883244 -1.9583,-1.34734 -5.23451,-1.388373 -7.38067,-0.09244 -2.93752,1.773796 -5.1975,5.795402 -6.16111,10.963654 -0.31655,1.697767 -0.33543,2.258483 -0.41247,12.246714 l -0.0808,10.467492 h -4.18702 -4.18698 l -0.0837,-12.486225 c -0.0895,-13.362233 -0.0928,-13.422819 -0.8884,-16.271756 -0.71828,-2.572103 -2.16884,-4.548636 -3.92188,-5.343948 -1.30886,-0.593807 -3.36545,-0.693046 -4.87301,-0.23514 -3.26682,0.992272 -5.82127,4.423722 -7.12665,9.573394 -0.79562,3.138705 -0.82456,3.643271 -0.8255,14.396109 -3.4e-4,5.483099 -0.0418,10.07571 -0.0917,10.205796 -0.0798,0.207827 -0.5941,0.236535 -4.23683,0.236535 -2.28035,0 -4.19095,-0.04486 -4.24577,-0.09969 z m 71.0317,0.0026 c -0.0561,-0.05608 -0.10198,-7.809517 -0.10198,-17.229798 V 51.719323 l 3.92531,-3.936714 c 2.86885,-2.877192 4.00579,-3.925332 4.22438,-3.894419 0.29745,0.04208 0.29906,0.156097 0.29906,21.126815 v 21.084507 l -4.12236,0.03968 c -2.26731,0.02185 -4.16828,-0.0065 -4.22439,-0.0623 z m 18.09376,-3.9e-5 c -0.0561,-0.05609 -0.10199,-11.880979 -0.10199,-26.277523 V 33.62382 l 4.03557,-4.043105 c 3.48475,-3.491265 4.07154,-4.020472 4.29915,-3.877271 0.25033,0.157491 0.26359,1.679697 0.26359,30.280933 V 86.0995 l -4.19719,0.03968 c -2.30844,0.02172 -4.24305,-0.0065 -4.29915,-0.0623 z m 177.64593,-0.0026 c -0.0552,-0.05478 -0.0996,-9.293889 -0.0996,-20.531241 0,-15.69181 0.0415,-20.473168 0.1794,-20.610976 0.12901,-0.128977 1.12983,-0.179437 3.55897,-0.179437 2.42914,0 3.42995,0.05051 3.55898,0.179437 0.13387,0.133905 0.17939,1.784454 0.17939,6.504786 v 6.325361 h 0.41985 c 0.4052,0 0.4347,-0.05355 0.84437,-1.532736 1.8896,-6.822975 4.86276,-10.436994 9.75171,-11.85375 2.20359,-0.638594 5.74739,-0.744077 7.9751,-0.237404 4.88324,1.110638 8.1731,4.668906 9.63961,10.426123 0.89314,3.506207 0.90266,3.698591 0.90266,18.226083 v 13.308662 l -4.28782,0.03968 -4.28783,0.03968 -0.0616,-12.376346 c -0.0545,-10.83386 -0.094,-12.570299 -0.32028,-13.932603 -0.51425,-3.09622 -1.3714,-5.142825 -2.73373,-6.527106 -1.39214,-1.414586 -2.94786,-2.005591 -5.28682,-2.008503 -2.72529,-0.0039 -4.47318,0.724463 -6.43319,2.678908 -1.99509,1.989357 -3.23488,4.257849 -4.09664,7.495652 -0.78932,2.96557 -0.82705,3.617039 -0.82803,14.297888 0,5.441974 -0.0415,10.000932 -0.0917,10.131025 -0.0798,0.207819 -0.59412,0.236534 -4.23686,0.236534 -2.28034,0 -4.19089,-0.04486 -4.24574,-0.0997 z M 197.26639,36.346048 c -1.75207,-1.745172 -3.18559,-3.278115 -3.18559,-3.406535 0,-0.246928 6.26959,-6.579557 6.51406,-6.579557 0.2401,0 6.49554,6.341998 6.49554,6.58543 0,0.237048 -6.27023,6.573684 -6.5048,6.573684 -0.0735,0 -1.56714,-1.427856 -3.31921,-3.173022 z"
     id="path1"
     inkscape:export-filename="logo.svg"
     inkscape:export-xdpi="96"
     inkscape:export-ydpi="96" /><text
     xml:space="preserve"
     style="font-style:italic;font-variant:normal;font-weight:normal;font-stretch:normal;font-size:24.0793px;font-family:'Open Sans';-inkscape-font-specification:'Open Sans Italic';text-align:end;letter-spacing:0px;text-anchor:end;opacity:1;fill:#0099da;fill-opacity:1;stroke-width:1.55123;stroke-dasharray:none"
     x="475.09912"
     y="120.97089"
     id="text14"><tspan
       sodipodi:role="line"
       id="tspan14"
       x="475.09912"
       y="120.97089"
       style="font-style:normal;font-variant:normal;font-weight:normal;font-stretch:normal;font-family:'Bricolage Grotesque';-inkscape-font-specification:'Bricolage Grotesque';stroke-width:1.55123">Make the World See</tspan></text></g></svg>
